<svg width="170" height="170" viewBox="0 0 170 170" fill="none" xmlns="http://www.w3.org/2000/svg">
<path d="M98.3952 93.2145L105.393 100.451C104.853 105.174 111.259 106.19 111.388 109.745C111.439 111.014 108.48 114.518 107.94 115.839C107.374 117.261 106.988 118.886 106.499 120.384C102.692 119.368 98.601 122.212 97.5719 126.478H111.542C113.523 122.492 117.331 117.388 119.904 113.071C120.598 113.147 121.293 113.477 121.936 113.807C122.065 110.887 120.933 102.178 120.933 102.178L122.039 80.8232L95.7195 82.9054L98.3694 93.1637L98.3952 93.2145Z" fill="#EEEEEE"/>
<path d="M111.568 127.773H97.5981C97.2121 127.773 96.8262 127.595 96.5947 127.291C96.3631 126.986 96.2602 126.58 96.3631 126.224C96.9806 123.634 98.6014 121.4 100.84 120.079C102.358 119.191 104.004 118.81 105.651 118.962C105.702 118.759 105.779 118.53 105.831 118.302C106.114 117.286 106.423 116.296 106.783 115.382C107.04 114.747 107.632 113.884 108.301 112.868C108.918 111.954 110.05 110.278 110.127 109.745C110.076 108.754 109.021 107.891 107.812 106.901C106.114 105.53 104.056 103.828 104.107 100.934L97.4952 94.0779C97.3408 93.9256 97.2379 93.7224 97.1864 93.5193L94.5365 83.2609C94.4336 82.9054 94.5365 82.5246 94.7423 82.2199C94.9481 81.9152 95.3083 81.712 95.6942 81.6866L122.014 79.6045C122.374 79.6045 122.76 79.7061 123.017 79.96C123.274 80.2139 123.429 80.5694 123.403 80.9249L122.297 102.28C122.322 102.406 123.429 110.913 123.3 113.909C123.3 114.341 123.043 114.747 122.657 114.95C122.271 115.179 121.808 115.153 121.396 114.95C121.139 114.823 120.856 114.671 120.573 114.544C119.672 115.991 118.669 117.515 117.666 119.038C115.839 121.806 113.935 124.675 112.752 127.037C112.546 127.468 112.083 127.748 111.594 127.748L111.568 127.773ZM99.399 125.234H110.771C112.006 122.898 113.781 120.257 115.479 117.692C116.662 115.915 117.846 114.138 118.823 112.462C119.081 112.03 119.544 111.776 120.058 111.852C120.264 111.852 120.444 111.903 120.65 111.954C120.47 108.374 119.698 102.457 119.698 102.381L120.702 82.2453L97.3408 84.0989L99.5276 92.5798L106.294 99.588C106.551 99.8673 106.68 100.223 106.629 100.604C106.423 102.406 107.529 103.448 109.381 104.946C110.874 106.165 112.546 107.51 112.649 109.694C112.7 110.811 111.826 112.157 110.385 114.265C109.87 115.026 109.278 115.915 109.124 116.296C108.79 117.159 108.507 118.073 108.249 118.987C108.069 119.597 107.889 120.181 107.709 120.765C107.503 121.4 106.809 121.781 106.14 121.603C104.828 121.247 103.387 121.476 102.1 122.238C100.943 122.923 99.9907 123.964 99.3733 125.209L99.399 125.234Z" fill="#C8C8C8"/>
<path d="M66.0286 108.628C66.4145 108.171 67.6237 116.118 70.6596 118.175C73.0266 119.775 75.2649 119.572 77.426 120.257C81.9798 121.704 83.4206 123.33 87.4084 121.197C89.2093 120.054 96.516 116.626 93.866 114.925C94.1233 109.694 87.4598 113.604 85.5045 115.077C81.491 114.442 81.208 112.97 79.7158 112.919C77.5032 112.843 87.5113 105.606 84.038 95.4999C81.3366 90.1422 64.5879 107.51 65.9772 108.653L66.0286 108.628Z" fill="#EEEEEE"/>
<path d="M83.9355 123.482C82.4691 123.482 81.1569 122.974 79.639 122.39C78.8929 122.111 78.0439 121.781 77.0405 121.45C76.3458 121.222 75.6769 121.12 74.9566 120.993C73.4386 120.714 71.7149 120.409 69.9139 119.216C67.4698 117.565 66.1834 113.223 65.4373 110.633C65.3086 110.176 65.2057 109.796 65.1028 109.542C64.8455 109.313 64.4082 108.729 64.7169 107.739C65.6431 104.92 76.4488 93.5954 81.9545 93.1892C83.3953 93.0876 84.5787 93.697 85.1962 94.8904C87.8462 102.559 83.5753 108.627 81.5171 111.522C81.4142 111.675 81.2856 111.827 81.1827 112.005C81.4399 112.132 81.6972 112.284 81.9288 112.436C82.5977 112.868 83.421 113.376 85.1705 113.706C86.6112 112.716 90.9078 110.024 93.4805 111.37C94.2009 111.751 95.0499 112.563 95.1271 114.315C95.6417 114.874 95.7188 115.483 95.6931 115.839C95.6417 117.819 92.9145 119.521 89.3641 121.501C88.8238 121.806 88.3607 122.06 88.0777 122.238C86.4054 123.126 85.0933 123.456 83.8841 123.456L83.9355 123.482ZM67.3411 108.196C67.5212 108.602 67.7013 109.161 67.9329 109.922C68.4989 111.878 69.7081 115.966 71.4061 117.108C72.744 117.997 74.0561 118.251 75.4454 118.505C76.2687 118.657 77.0662 118.81 77.8381 119.038C78.8929 119.368 79.7934 119.724 80.5652 120.028C83.1637 121.044 84.2443 121.45 86.817 120.079C87.0486 119.927 87.5632 119.648 88.1549 119.318C89.2612 118.708 92.4771 116.88 93.0946 115.915C92.7859 115.661 92.5801 115.255 92.6058 114.849C92.6315 114.188 92.5286 113.731 92.3228 113.63C91.3966 113.173 88.335 114.569 86.3025 116.093C86.0195 116.296 85.685 116.397 85.3248 116.347C82.6749 115.94 81.4142 115.128 80.5909 114.595C80.1021 114.29 79.9477 114.188 79.7162 114.188C78.8157 114.163 78.4298 113.604 78.3012 113.35C77.8123 112.411 78.4041 111.598 79.4589 110.1C81.4142 107.332 85.0418 102.203 82.8807 95.8807C82.8807 95.8807 82.7521 95.6776 82.1603 95.7284C78.0439 96.16 68.7047 105.682 67.3926 108.196H67.3411Z" fill="#C8C8C8"/>
<path d="M35.3873 104.895C38.2688 104.895 36.082 118.454 34.7184 118.022C34.0495 116.549 19.7448 117.667 18.0983 112.258C19.2303 112.03 25.9967 107.078 25.9967 107.078L35.3873 104.895Z" fill="#EEEEEE"/>
<path d="M34.77 119.317C34.6156 119.317 34.4613 119.317 34.3069 119.241C34.0753 119.164 33.8953 119.037 33.7409 118.885C33.2006 118.682 31.5283 118.504 30.1647 118.352C25.0964 117.793 18.1756 117.031 16.8635 112.664C16.7606 112.334 16.812 111.953 16.9921 111.648C17.1722 111.344 17.481 111.115 17.8411 111.064C18.5101 110.836 22.2149 108.322 25.225 106.113C25.3536 106.011 25.5337 105.935 25.6881 105.91L35.0787 103.726C35.0787 103.726 35.2845 103.701 35.3875 103.701C35.9277 103.701 36.9311 103.904 37.5229 105.25C38.835 108.144 37.5743 117.082 36.0049 118.809C35.6705 119.19 35.2331 119.368 34.7957 119.368L34.77 119.317ZM19.8479 112.816C21.6746 114.822 27.0517 115.432 30.4477 115.813C32.2487 116.016 33.5093 116.143 34.3841 116.422C35.2588 114.137 35.9277 107.763 35.1816 106.265L26.5114 108.297C24.2216 109.973 21.5459 111.852 19.8222 112.842L19.8479 112.816Z" fill="#C8C8C8"/>
<path d="M162.147 57.9198C162.147 60.1289 161.401 60.002 159.96 59.3672C157.542 58.2753 155.792 55.7361 153.245 54.8474C152.654 56.8026 153.76 57.9452 151.084 57.0057C149.026 56.3201 147.071 54.7966 145.064 53.8825C143.623 51.3433 140.227 49.8198 136.136 51.521C137.552 52.6383 137.68 53.0953 137.86 54.7712C134.67 54.0348 133.538 54.6189 132.097 54.6696C134.336 62.338 137.011 67.0102 135.159 75.4911C134.644 77.8779 132.38 79.4776 132.432 81.8645C132.432 83.8958 134.516 88.6695 135.57 90.7517C134.413 90.5485 133.049 91.4373 131.969 91.0056C135.699 97.6837 142.517 98.4454 143.443 105.961C143.057 105.961 142.466 106.139 142.028 106.114C140.793 109.339 144.524 125.97 138.915 126.478H125.974C126.386 122.009 129.396 120.562 133.564 120.714C133.77 115.153 133.255 109.719 128.29 106.774C123.401 104.336 116.455 101.95 114.062 96.2363C110.82 96.4141 108.016 85.9018 108.016 85.9018C104.671 89.9137 103.488 91.031 98.4453 93.1639C95.1265 94.5859 90.8299 95.3476 87.2538 97.0235C87.6397 97.3536 88.2314 98.4454 88.7203 98.7501C84.5009 99.9944 83.7291 100.629 79.3811 100.401C79.3811 100.401 70.8909 105.581 61.6547 110.583C52.4441 115.56 56.1232 126.808 52.7786 126.834C49.6655 126.834 45.6777 120.486 42.719 120.181C39.7346 119.826 37.1104 123.355 37.1104 123.355C37.3677 120.029 32.0163 117.87 32.4022 110.608C29.495 113.122 22.1368 104.895 21.0048 101.569C23.6033 101.213 26.279 100.401 28.8775 99.8674C32.7624 99.131 36.3386 96.1856 40.2749 95.9824C42.2302 89.7106 40.5322 87.6031 46.4238 89.9391C46.4238 89.9391 46.4238 88.4156 48.868 85.1908C50.3087 83.2864 49.9485 78.1065 49.9485 78.1065C51.6208 78.5381 51.981 80.5441 53.0101 79.0713C54.2451 77.2685 56.7149 72.4186 58.2586 70.9713C61.9634 67.4418 69.5016 57.7929 75.1875 57.7675C74.8273 58.2499 75.3418 61.043 75.0331 61.3985C78.6864 57.5389 84.0378 53.1969 88.9775 50.8101C88.5144 51.5718 88.2829 52.7145 87.9484 53.3747C91.2416 50.4038 96.9531 47.1028 101.481 47.0774C101.481 47.2552 101.558 47.9916 101.661 48.1693C107.656 43.548 115.22 44.7668 122.269 44.5382C122.269 44.5382 122.063 46.1887 121.42 46.3411C122.346 46.6712 123.607 47.0267 125.022 47.4583C135.596 42.8878 144.395 41.1865 152.705 45.7824C156.204 47.7122 158.237 50.6831 160.372 53.9079C161.17 55.1267 162.173 56.4217 162.147 57.9198Z" fill="#F4F4F4"/>
<path d="M52.7553 128.128C50.6199 128.128 48.5617 126.224 46.5807 124.37C45.1656 123.05 43.5705 121.577 42.5929 121.475C40.7405 121.272 38.708 123.38 38.1677 124.116C37.8332 124.573 37.2158 124.751 36.6755 124.548C36.1352 124.345 35.8007 123.837 35.8265 123.253C35.9036 122.339 35.209 121.374 34.3342 120.155C33.0736 118.378 31.4013 116.016 31.1183 112.334C30.7581 112.334 30.3464 112.284 29.8833 112.182C25.9985 111.141 20.8272 105.098 19.7723 101.974C19.6437 101.619 19.6952 101.213 19.901 100.908C20.1068 100.603 20.4413 100.375 20.8272 100.324C22.3708 100.121 23.9917 99.7145 25.5868 99.3336C26.6159 99.0797 27.6193 98.8512 28.6227 98.648C30.2178 98.3433 31.7615 97.6324 33.3823 96.8706C35.2604 96.0073 37.19 95.1186 39.274 94.8139C39.5827 93.6712 39.7885 92.6555 39.9429 91.843C40.3031 90.0148 40.5604 88.7198 41.7696 88.0596C42.7215 87.5518 43.8792 87.7041 45.5515 88.2627C45.9117 87.3486 46.5807 86.079 47.8413 84.4285C48.6389 83.3875 48.7932 80.1373 48.6646 78.1821C48.6389 77.7758 48.819 77.3696 49.1277 77.1156C49.4364 76.8617 49.8738 76.7602 50.2597 76.8617C51.1345 77.0902 51.7519 77.5727 52.1893 77.979C52.6009 77.3442 53.064 76.557 53.5529 75.7191C54.8135 73.5608 56.2543 71.1231 57.3863 70.0567C58.1324 69.3457 59.0586 68.3554 60.1134 67.2382C64.3328 62.7184 70.1473 56.5481 75.2156 56.5227C75.7045 56.5227 76.1418 56.7767 76.3734 57.2083C76.5535 57.5638 76.5535 57.9701 76.3734 58.3256C79.6665 55.2277 84.066 51.8252 88.4397 49.7177C88.9542 49.4638 89.5717 49.5907 89.9576 49.997C90.0091 50.0478 90.0606 50.0986 90.0863 50.1493C93.5081 47.8133 97.8303 45.8581 101.509 45.8327C101.87 45.7565 102.153 45.9597 102.384 46.1628C107.221 43.2173 112.701 43.2681 118.078 43.2935C119.467 43.2935 120.882 43.2935 122.246 43.2935C122.709 43.2681 122.992 43.4205 123.224 43.6998C123.481 43.9791 123.61 44.3346 123.558 44.7155C123.532 44.9948 123.481 45.3249 123.378 45.655C123.867 45.8073 124.407 45.9597 124.973 46.1374C133.669 42.4048 143.806 39.4085 153.351 44.7155C157.21 46.8738 159.474 50.2509 161.481 53.2472L161.764 53.6788C162.561 54.8976 163.488 56.2688 163.462 57.9701C163.462 58.9604 163.333 60.1538 162.381 60.7632C161.378 61.398 160.22 60.8902 159.448 60.5347C158.162 59.9507 157.107 59.0619 156.078 58.1986C155.486 57.6908 154.894 57.2083 154.303 56.802C154.251 57.3353 154.097 57.9193 153.505 58.3002C152.708 58.8334 151.704 58.5541 150.675 58.1986C149.363 57.7669 148.154 57.056 146.97 56.345C146.173 55.8625 145.349 55.4055 144.526 55.0246C144.269 54.923 144.063 54.7199 143.934 54.4914C143.034 52.9171 141.104 51.749 138.506 52.1299C138.918 52.8155 139.02 53.5265 139.149 54.6183C139.201 55.0246 139.02 55.4309 138.712 55.7102C138.403 55.9895 137.966 56.0911 137.554 55.9895C135.702 55.5578 134.672 55.6086 133.772 55.7356C134.081 56.7005 134.364 57.5892 134.647 58.4779C136.422 63.9118 137.966 68.5839 136.422 75.7445C136.139 77.0141 135.47 78.0551 134.904 78.9946C134.261 80.0103 133.721 80.8737 133.746 81.8132C133.746 83.4636 135.547 87.7803 136.756 90.1925C136.962 90.6242 136.911 91.132 136.628 91.5129C136.345 91.8938 135.856 92.0715 135.367 91.9953C135.136 91.9446 134.698 92.0461 134.287 92.1477C135.547 93.7982 137.039 95.0424 138.506 96.2612C141.284 98.5719 144.14 100.959 144.758 105.809C144.809 106.164 144.681 106.545 144.449 106.799C144.14 107.154 143.703 107.18 143.137 107.281C143.008 108.5 143.137 110.684 143.24 112.664C143.6 119.165 144.037 127.265 139.072 127.747H126.002C125.642 127.747 125.308 127.595 125.05 127.341C124.819 127.087 124.69 126.732 124.716 126.376C124.999 123.304 126.594 119.723 132.331 119.469C132.408 114.163 131.508 110.176 127.649 107.891C126.98 107.561 126.157 107.18 125.333 106.799C120.985 104.768 115.582 102.254 113.216 97.4292C110.54 96.6421 108.61 92.0207 107.478 88.5674C104.983 91.3605 103.336 92.5286 98.9881 94.3822C97.4187 95.0678 95.6692 95.5756 93.8425 96.1088C92.3246 96.5659 90.7809 97.023 89.3402 97.5816C89.3916 97.6324 89.4431 97.6832 89.4688 97.7085C89.9062 97.9625 90.1377 98.4449 90.0605 98.9528C89.9834 99.4606 89.6232 99.8415 89.1343 99.9938C88.3368 100.222 87.6679 100.451 87.0761 100.629C84.5291 101.441 83.217 101.847 79.7694 101.695C78.0971 102.711 70.456 107.307 62.326 111.7C57.2319 114.467 56.5116 119.393 55.9713 122.999C55.5854 125.614 55.2252 128.103 52.8325 128.103H52.8068L52.7553 128.128ZM42.2841 118.911C42.4642 118.911 42.67 118.911 42.8501 118.936C44.6768 119.114 46.452 120.764 48.3301 122.517C49.7966 123.888 51.649 125.589 52.7553 125.589C52.9611 125.335 53.1927 123.786 53.3728 122.643C53.9388 118.733 54.7878 112.842 61.0396 109.465C70.1473 104.539 78.6374 99.359 78.7146 99.3082C78.9462 99.1813 79.2034 99.1051 79.4607 99.1305C82.7539 99.2828 83.783 98.9781 86.2528 98.191C86.33 98.1656 86.4329 98.1402 86.5101 98.1148C86.4844 98.064 86.4329 98.0386 86.4072 98.0132C86.0985 97.7339 85.9441 97.2769 85.9956 96.8706C86.0727 96.4643 86.3043 96.0835 86.6902 95.9057C88.7227 94.9662 90.9096 94.306 93.045 93.6712C94.7944 93.138 96.4668 92.6555 97.9075 92.0461C102.641 90.0402 103.696 89.0753 106.989 85.1395C107.298 84.784 107.787 84.6063 108.25 84.7078C108.713 84.8094 109.099 85.1649 109.228 85.622C110.54 90.4972 112.804 94.9916 113.962 95.017C114.579 94.9662 115.016 95.2963 115.222 95.8041C117.049 100.146 122.014 102.457 126.362 104.514C127.211 104.92 128.06 105.301 128.832 105.682C134.467 109.008 135.033 114.899 134.827 120.815C134.827 121.145 134.672 121.475 134.415 121.704C134.158 121.933 133.875 122.034 133.489 122.034C130.119 121.882 128.163 122.897 127.494 125.259H138.918C141.31 125.03 140.873 117.413 140.641 112.868C140.435 109.262 140.358 107.002 140.847 105.732C141.027 105.275 141.465 104.945 141.953 104.92C141.182 101.898 139.226 100.273 136.834 98.2672C134.827 96.5913 132.537 94.6869 130.865 91.6906C130.607 91.2082 130.659 90.6242 131.019 90.2179C131.379 89.8116 131.971 89.6847 132.46 89.8878C132.691 89.9894 133.206 89.8624 133.643 89.7609C132.691 87.6533 131.173 83.9715 131.148 81.9401C131.096 80.2389 131.945 78.8931 132.691 77.725C133.206 76.9125 133.695 76.1254 133.875 75.2874C135.29 68.8125 133.901 64.6482 132.177 59.3412C131.739 57.9955 131.276 56.5989 130.839 55.0754C130.736 54.6945 130.813 54.2882 131.045 53.9835C131.276 53.6788 131.637 53.4757 132.048 53.4503C132.383 53.4503 132.691 53.3995 133.026 53.3487C133.823 53.2472 134.724 53.0948 136.087 53.2472C135.907 53.044 135.676 52.8409 135.316 52.5616C134.955 52.2823 134.775 51.8252 134.853 51.3936C134.904 50.9619 135.213 50.581 135.624 50.4033C140.333 48.4481 144.192 50.3017 145.941 52.9425C146.713 53.3233 147.485 53.755 148.257 54.2121C149.363 54.8723 150.418 55.4817 151.473 55.8371C151.576 55.8625 151.653 55.8879 151.73 55.9133C151.756 55.5071 151.807 55.05 151.987 54.4914C152.09 54.1613 152.322 53.882 152.63 53.7296C152.939 53.5773 153.299 53.5519 153.634 53.6534C155.229 54.2121 156.49 55.2531 157.699 56.2688C158.625 57.056 159.525 57.7923 160.477 58.224C160.606 58.2748 160.735 58.3256 160.838 58.3763C160.838 58.2494 160.838 58.1224 160.838 57.9447C160.838 57.0052 160.22 56.0657 159.551 55.0754L159.268 54.6437C157.364 51.7744 155.358 48.8036 152.039 46.95C145.015 43.0396 137.322 43.5474 125.513 48.6766C125.23 48.8036 124.922 48.8036 124.613 48.7274L124.201 48.6004C122.915 48.2196 121.783 47.8895 120.934 47.5848C120.394 47.407 120.059 46.8738 120.085 46.3152C120.085 46.1628 120.136 46.0358 120.188 45.8835C119.467 45.8835 118.721 45.8835 117.975 45.8835C112.264 45.8327 106.861 45.7819 102.41 49.2352C102.101 49.4638 101.741 49.5399 101.355 49.4892C100.995 49.413 100.66 49.1844 100.48 48.8544C100.429 48.7528 100.377 48.6258 100.326 48.4989C96.4925 48.9813 91.7586 51.6983 88.7742 54.3898C88.3111 54.7961 87.6421 54.8469 87.1533 54.466C86.8703 54.2628 86.6902 53.9328 86.6388 53.6027C82.4709 56.1419 78.5088 59.6206 75.936 62.3375C75.4472 62.8453 74.6754 62.8707 74.1351 62.4137C73.7234 62.0582 73.5948 61.4742 73.8006 60.9917C73.8006 60.7632 73.8006 60.23 73.7749 59.8745C73.7749 59.6967 73.7749 59.4936 73.7492 59.3412C69.9672 60.4585 65.2075 65.5369 61.9401 69.0156C60.8596 70.1582 59.9076 71.1993 59.1101 71.9611C58.2353 72.7736 56.7946 75.262 55.714 77.0649C55.0451 78.1821 54.4533 79.2232 54.016 79.858C53.8616 80.1119 53.3471 80.8229 52.4466 80.9244C51.9578 80.9752 51.5461 80.8229 51.2116 80.6197C51.1345 82.4226 50.8515 84.7332 49.8481 86.0282C47.7899 88.7452 47.6612 90.0656 47.6612 90.0656C47.6355 90.4718 47.4039 90.8527 47.0438 91.0558C46.6836 91.259 46.2719 91.3352 45.886 91.1828C43.6734 90.2941 43.0817 90.3195 42.9273 90.3703C42.7729 90.548 42.5671 91.5637 42.4128 92.4016C42.2069 93.4681 41.9239 94.8139 41.4351 96.4389C41.2807 96.9468 40.8176 97.3023 40.2774 97.3277C38.322 97.4292 36.4182 98.2926 34.4114 99.2321C32.7134 100.019 30.9382 100.832 29.0601 101.187C28.1081 101.39 27.1305 101.619 26.1271 101.847C25.0465 102.101 23.9402 102.381 22.8339 102.584C24.4291 105.25 28.0824 109.135 30.5008 109.77C31.1955 109.947 31.4013 109.77 31.5042 109.694C31.8901 109.363 32.4561 109.287 32.9192 109.516C33.3823 109.744 33.6653 110.227 33.6396 110.735C33.4338 114.594 35.0032 116.829 36.3925 118.784C36.8813 119.495 37.3701 120.18 37.7303 120.891C38.8623 119.952 40.4317 118.987 42.2327 118.987L42.2841 118.911Z" fill="#C8C8C8"/>
<path d="M107.991 87.196C107.477 87.196 107.014 86.8913 106.808 86.4088C106.113 84.6822 105.393 82.5238 105.316 79.3498C101.688 79.0959 99.7586 77.3439 97.8805 75.6426C96.6713 74.5508 95.5392 73.5351 93.8927 72.7987C93.2495 72.494 92.9665 71.7576 93.2495 71.1228C93.5582 70.488 94.3043 70.2087 94.9475 70.488C96.9543 71.4021 98.3436 72.6717 99.6042 73.789C101.56 75.5664 103.155 76.9884 106.576 76.8614C106.911 76.8614 107.271 76.9884 107.528 77.2423C107.786 77.4962 107.914 77.8263 107.914 78.1818C107.811 81.5843 108.532 83.7934 109.226 85.4947C109.484 86.1549 109.175 86.8913 108.506 87.1452C108.352 87.196 108.197 87.2467 108.017 87.2467L107.991 87.196Z" fill="#C8C8C8"/>
<path d="M53.449 128.128C52.4714 128.128 51.5452 127.976 50.7219 127.62C49.0496 126.909 47.7117 125.538 46.4511 124.243C45.036 122.77 43.6725 121.399 42.2574 121.399C42.2574 121.399 42.2317 121.399 42.206 121.399C41.0482 121.424 39.6589 122.364 38.0638 124.167C37.8065 124.446 37.4206 124.624 37.0604 124.598C36.6745 124.598 36.3143 124.421 36.0828 124.116C34.1789 121.78 32.5838 122.364 29.728 123.659C28.2358 124.345 26.6922 125.03 25.0456 125.03C24.8398 125.03 24.6339 124.979 24.4538 124.903C22.1898 123.761 18.8709 123.202 16.0151 126.96C15.7836 127.29 15.3977 127.468 14.986 127.468H5.20948C4.48911 127.468 3.9231 126.909 3.9231 126.198C3.9231 125.487 4.48911 124.929 5.20948 124.929H14.3686C17.2501 121.526 21.2893 120.637 25.3029 122.491C26.332 122.415 27.464 121.907 28.6475 121.348C30.9887 120.282 34.1275 118.86 37.0862 121.45C38.8356 119.723 40.508 118.885 42.1288 118.834C44.6758 118.834 46.5282 120.637 48.3035 122.466C49.4098 123.608 50.5418 124.776 51.751 125.284C53.3976 125.995 56.2533 125.284 59.0319 124.548C63.1998 123.481 67.9595 122.262 70.3521 125.741C70.7638 126.325 70.6094 127.112 70.0177 127.493C69.4259 127.899 68.6284 127.747 68.2167 127.163C66.9303 125.309 63.9974 125.893 59.6494 127.011C57.514 127.544 55.3529 128.103 53.4233 128.103L53.449 128.128Z" fill="#C8C8C8"/>
<path d="M46.4013 89.9133C46.2212 87.7042 48.8455 85.165 48.8455 85.165C48.8455 85.165 63.6389 93.519 64.0248 103.219L61.7351 107.358C56.3065 95.8297 46.427 89.9387 46.427 89.9387L46.4013 89.9133Z" fill="#EEEEEE"/>
<path d="M61.7339 108.627H61.6824C61.1936 108.627 60.7562 108.323 60.5504 107.891C55.3534 96.871 45.8341 91.0816 45.7312 91.0054C45.371 90.8023 45.1395 90.4214 45.1137 90.0151C44.9079 87.2982 47.6351 84.5558 47.9438 84.2511C48.3554 83.8449 48.9729 83.7687 49.4875 84.048C50.1049 84.4035 64.8984 92.8844 65.31 103.143C65.31 103.371 65.2586 103.6 65.1556 103.803L62.8659 107.942C62.6343 108.348 62.197 108.602 61.7339 108.602V108.627ZM47.738 89.2534C49.9248 90.7007 56.9485 95.8299 61.7853 104.616L62.7115 102.914C62.1455 95.4744 52.1374 88.6947 49.1015 86.7903C48.5098 87.5267 47.9181 88.4408 47.738 89.2534Z" fill="#C8C8C8"/>
<path d="M40.8936 117.616C40.2247 117.616 39.6587 117.109 39.6072 116.448C39.5558 115.737 40.0703 115.128 40.7907 115.077L42.5659 114.925C43.312 114.874 43.9038 115.382 43.9552 116.093C44.0067 116.804 43.4921 117.413 42.7718 117.464L40.9965 117.616C40.9965 117.616 40.9194 117.616 40.8936 117.616Z" fill="#C8C8C8"/>
<path d="M65.4901 96.7951C62.7887 101.823 61.631 107.079 56.2281 111.167C52.5234 113.96 51.9316 119.165 51.7258 123.584C51.5714 126.453 51.2627 126.504 53.501 126.885C53.501 126.885 55.4306 126.885 59.1868 125.894C60.5504 123.025 59.9072 118.886 62.2484 117.032C63.5091 116.017 66.3134 114.9 67.7542 114.087C69.092 113.401 69.7095 111.929 70.9701 111.142C74.6492 108.932 78.0453 109.059 79.2545 103.879C79.7176 101.823 80.8753 96.7951 79.5632 94.3066" fill="#F4F4F4"/>
<path d="M53.4748 128.154C50.5418 127.646 50.2074 126.91 50.3617 124.421L50.4132 123.507C50.6705 118.327 51.468 113.122 55.4301 110.126C59.2121 107.282 60.7815 103.803 62.4538 100.096C63.0455 98.8007 63.6372 97.4803 64.3319 96.1599C64.6664 95.5505 65.4382 95.2966 66.0814 95.6267C66.6988 95.9568 66.9561 96.7185 66.6217 97.3533C65.9527 98.5976 65.3867 99.8672 64.8207 101.137C63.097 104.946 61.296 108.907 56.9995 112.131C53.8607 114.493 53.2175 119.038 52.986 123.609L52.9345 124.574C52.9345 124.878 52.883 125.208 52.883 125.437C53.1146 125.488 53.4748 125.564 53.6806 125.589C53.6806 125.589 55.25 125.513 58.2087 124.777C58.5174 123.913 58.6975 122.898 58.8776 121.831C59.2378 119.648 59.6237 117.413 61.3989 115.991C62.3509 115.229 63.946 114.468 65.361 113.782C66.0042 113.477 66.6217 113.173 67.1105 112.919C67.625 112.639 68.011 112.208 68.4741 111.674C68.9629 111.116 69.5032 110.481 70.275 109.999C71.3041 109.389 72.3075 108.932 73.208 108.526C75.6264 107.459 77.2472 106.723 77.9933 103.524C78.3792 101.899 79.5113 96.8963 78.405 94.8395C78.0705 94.2301 78.3021 93.443 78.9453 93.1129C79.5884 92.7828 80.3603 93.0113 80.6947 93.6461C82.2384 96.5408 81.0292 101.822 80.5146 104.082C79.4598 108.526 76.8356 109.694 74.2885 110.836C73.4395 111.217 72.539 111.624 71.6386 112.157C71.2269 112.411 70.841 112.842 70.4551 113.3C69.9148 113.934 69.2973 114.645 68.3711 115.128C67.908 115.382 67.2391 115.712 66.5188 116.042C65.3095 116.626 63.7916 117.337 63.0712 117.921C62.0421 118.733 61.7591 120.435 61.4504 122.212C61.2188 123.609 60.9616 125.056 60.3441 126.351C60.1897 126.681 59.881 126.935 59.5208 127.037C55.6359 128.052 53.6034 128.078 53.5005 128.078L53.4748 128.154Z" fill="#C8C8C8"/>
</svg>
