<svg width="10" height="10" viewBox="0 0 10 10" fill="none" xmlns="http://www.w3.org/2000/svg">
<path d="M7.5 0.833008C8.19025 0.833008 8.74982 1.3928 8.75 2.08301V7.91699C8.74982 8.6072 8.19025 9.16699 7.5 9.16699H2.5C1.80975 9.16699 1.25018 8.6072 1.25 7.91699V2.08301C1.25018 1.3928 1.80975 0.833008 2.5 0.833008H7.5ZM2.5 1.66699C2.26999 1.66699 2.08318 1.85304 2.08301 2.08301V7.91699C2.08318 8.14696 2.26999 8.33301 2.5 8.33301H7.5C7.73001 8.33301 7.91682 8.14696 7.91699 7.91699V2.08301C7.91682 1.85304 7.73001 1.66699 7.5 1.66699H2.5ZM3.54199 6.25C3.77196 6.25018 3.95801 6.43698 3.95801 6.66699C3.95783 6.89685 3.77185 7.08283 3.54199 7.08301C3.31198 7.08301 3.12518 6.89696 3.125 6.66699C3.125 6.43687 3.31187 6.25 3.54199 6.25ZM5.625 6.25C5.85512 6.25 6.04199 6.43687 6.04199 6.66699C6.04182 6.89696 5.85501 7.08301 5.625 7.08301H5C4.76999 7.08301 4.58318 6.89696 4.58301 6.66699C4.58301 6.43687 4.76988 6.25 5 6.25H5.625ZM3.54199 4.58301C3.77196 4.58318 3.95801 4.76999 3.95801 5C3.95801 5.23001 3.77196 5.41682 3.54199 5.41699C3.31187 5.41699 3.125 5.23012 3.125 5C3.125 4.76988 3.31187 4.58301 3.54199 4.58301ZM6.45801 4.58301C6.68813 4.58301 6.875 4.76988 6.875 5C6.875 5.23012 6.68813 5.41699 6.45801 5.41699H5C4.76988 5.41699 4.58301 5.23012 4.58301 5C4.58301 4.76988 4.76988 4.58301 5 4.58301H6.45801ZM3.54199 2.91699C3.77185 2.91717 3.95783 3.10315 3.95801 3.33301C3.95801 3.56302 3.77196 3.74982 3.54199 3.75C3.31187 3.75 3.125 3.56313 3.125 3.33301C3.12518 3.10304 3.31198 2.91699 3.54199 2.91699ZM6.45801 2.91699C6.68802 2.91699 6.87482 3.10304 6.875 3.33301C6.875 3.56313 6.68813 3.75 6.45801 3.75H5C4.76988 3.75 4.58301 3.56313 4.58301 3.33301C4.58318 3.10304 4.76999 2.91699 5 2.91699H6.45801Z" fill="white"/>
</svg>
